Coordinates
version=1
nRows=6
nColumns=63
inDegrees=yes

Units are S.I. units (second, meters, Newtons, ...)
If the header above contains a line with 'inDegrees', this indicates whether rotational values are in degrees (yes) or radians (no).

endheader
time	pelvis_tilt	pelvis_list	pelvis_rotation	pelvis_tx	pelvis_ty	pelvis_tz	hip_flexion_r	hip_adduction_r	hip_rotation_r	knee_angle_r	knee_angle_r_beta	ankle_angle_r	subtalar_angle_r	mtp_angle_r	hip_flexion_l	hip_adduction_l	hip_rotation_l	knee_angle_l	knee_angle_l_beta	ankle_angle_l	subtalar_angle_l	mtp_angle_l	L5_S1_Flex_Ext	L5_S1_Lat_Bending	L5_S1_axial_rotation	L4_L5_Flex_Ext	L4_L5_Lat_Bending	L4_L5_axial_rotation	L3_L4_Flex_Ext	L3_L4_Lat_Bending	L3_L4_axial_rotation	L2_L3_Flex_Ext	L2_L3_Lat_Bending	L2_L3_axial_rotation	L1_L2_Flex_Ext	L1_L2_Lat_Bending	L1_L2_axial_rotation	L1_T12_Flex_Ext	L1_T12_Lat_Bending	L1_T12_axial_rotation	Abs_r3	Abs_r2	Abs_r1	Abs_t1	Abs_t2	neck_flexion	neck_bending	neck_rotation	arm_flex_r	arm_add_r	arm_rot_r	elbow_flex_r	pro_sup_r	wrist_flex_r	wrist_dev_r	arm_flex_l	arm_add_l	arm_rot_l	elbow_flex_l	pro_sup_l	wrist_flex_l	wrist_dev_l
      1.26666667	    -15.86678158	     15.72577628	    -62.31112319	     -0.02801261	      0.95433110	     -0.80279361	     36.00018893	      5.59871507	    -34.84032176	     13.36323669	      0.23323248	    -16.56579194	    -11.54538834	      0.00000000	     22.46172703	     -6.45008953	     18.22759828	     32.52578502	      0.56768204	     12.61951715	    -15.99212666	      0.00000000	     -0.00724442	     -0.77749749	     -1.33864955	     -0.01345361	     -1.03407166	     -1.42231514	     -0.01190185	     -1.89040739	     -1.42231514	     -0.00827964	     -1.89040739	     -1.17131835	     -0.00672717	     -1.58547288	     -1.08765276	     -0.00413946	     -1.20434361	     -1.00398716	     -0.05174614	     -8.79520710	     -7.44516718	      0.00000000	      0.00000000	    -10.03465141	     -0.58445433	    -10.57186102	    -37.91176032	    -42.59904526	    -84.87135518	    121.04021071	     89.99559364	      0.00000000	      0.00000000	     -3.27975831	    -50.02054988	     -9.91619437	     57.01182988	     89.99559364	      0.00000000	      0.00000000
      1.28333333	    -14.59678071	     14.64780850	    -63.22563453	     -0.02011971	      0.95278402	     -0.78811195	     34.05298691	      5.16183437	    -35.12452062	     15.80827372	      0.27590643	    -14.09065887	    -11.72072055	      0.00000000	     19.02828912	     -6.10187204	     17.32675091	     31.94271494	      0.55750555	     13.86292116	    -16.21951479	      0.00000000	     -0.00631059	     -0.56919029	     -1.65693236	     -0.01171940	     -0.75702309	     -1.76049064	     -0.01036767	     -1.38392928	     -1.76049064	     -0.00721237	     -1.38392928	     -1.44981582	     -0.00586001	     -1.16069285	     -1.34625755	     -0.00360587	     -0.88167577	     -1.24269927	     -0.04507591	     -6.43879445	     -9.21536073	      0.00000000	      0.00000000	     -9.21096833	     -0.51287849	     -7.56504971	    -35.09941392	    -45.46720998	    -81.39124958	    119.35207193	     89.99559364	      0.00000000	      0.00000000	    -11.05527176	    -48.81905961	    -17.40281374	     58.37181955	     89.99559364	      0.00000000	      0.00000000
      1.30000000	    -13.18946195	     13.51652344	    -64.81921150	     -0.01371756	      0.95214486	     -0.77338282	     31.93895512	      4.95215563	    -33.86322290	     17.64811955	      0.30801779	    -12.03416050	    -11.76389135	      0.00000000	     15.38918684	     -5.72155327	     16.14531270	     31.41289361	      0.54825842	     14.81327650	    -16.17497196	      0.00000000	     -0.00592915	     -0.37852233	     -1.84533482	     -0.01101102	     -0.50343470	     -1.96066824	     -0.00974100	     -0.92033919	     -1.96066824	     -0.00677642	     -0.92033919	     -1.61466797	     -0.00550581	     -0.77188273	     -1.49933454	     -0.00338791	     -0.58633109	     -1.38400111	     -0.04235131	     -4.28192029	    -10.26319865	      0.00000000	      0.00000000	     -8.85385861	     -0.47274007	     -5.54496343	    -31.61386624	    -48.22789573	    -77.69367014	    117.29660450	     89.99559364	      0.00000000	      0.00000000	    -17.12054266	    -47.88971765	    -23.00349606	     58.26173977	     89.99559364	      0.00000000	      0.00000000
      1.31666667	    -11.49752747	     12.42800494	    -66.97162969	     -0.00904679	      0.95263391	     -0.75895256	     29.84659964	      4.56841975	    -31.71695355	     19.24087467	      0.33581661	     -9.92707326	    -11.20303796	      0.00000000	     11.81357335	     -5.00183920	     14.66188197	     31.07597633	      0.54237811	     15.41447355	    -15.81002657	      0.00000000	     -0.00507688	     -0.23560170	     -1.70363830	     -0.00942828	     -0.31335026	     -1.81011569	     -0.00834081	     -0.57284197	     -1.81011569	     -0.00580237	     -0.57284197	     -1.49068351	     -0.00471439	     -0.48043898	     -1.38420612	     -0.00290093	     -0.36494703	     -1.27772872	     -0.03626368	     -2.66517353	     -9.47512512	      0.00000000	      0.00000000	     -8.72141874	     -0.41398240	     -3.69103187	    -29.52098549	    -49.80517104	    -75.63848026	    115.20732586	     89.99559364	      0.00000000	      0.00000000	    -20.09684301	    -48.23556566	    -25.12978798	     57.10566434	     89.99559364	      0.00000000	      0.00000000
      1.33333333	     -9.44693369	     11.55826728	    -69.41179555	     -0.00619951	      0.95420633	     -0.74509567	     28.04389865	      3.70179175	    -29.02162179	     20.83631618	      0.36366232	     -7.81040162	    -10.27428282	      0.00000000	      8.85015836	     -3.62782479	     13.30070587	     31.29975017	      0.54628370	     15.51136400	    -15.34600472	      0.00000000	     -0.00524026	     -0.16760716	     -1.17082832	     -0.00973168	     -0.22291753	     -1.24400509	     -0.00860922	     -0.40752006	     -1.24400509	     -0.00598909	     -0.40752006	     -1.02447478	     -0.00486610	     -0.34178453	     -0.95129801	     -0.00299428	     -0.25962350	     -0.87812124	     -0.03743064	     -1.89600575	     -6.51179589	      0.00000000	      0.00000000	     -8.79999963	     -0.37837251	     -3.82028624	    -30.36800612	    -49.46187478	    -76.51270687	    113.39918635	     89.99559364	      0.00000000	      0.00000000	    -19.75799368	    -50.29807500	    -24.04040608	     55.65813606	     89.99559364	      0.00000000	      0.00000000
      1.35000000	     -7.33250628	     11.01302318	    -71.51724103	     -0.00412294	      0.95641594	     -0.73239228	     26.67679930	      2.47890045	    -26.34009988	     22.19108353	      0.38730747	     -6.20403452	    -10.01027738	      0.00000000	      7.23636322	     -1.91601012	     12.05711850	     32.54547800	      0.56802575	     15.60111428	    -13.87844812	      0.00000000	     -0.00402967	     -0.13886057	     -0.32015789	     -0.00748350	     -0.18468456	     -0.34016776	     -0.00662034	     -0.33762560	     -0.34016776	     -0.00460551	     -0.33762560	     -0.28013816	     -0.00374195	     -0.28316448	     -0.26012829	     -0.00230255	     -0.21509503	     -0.24011842	     -0.02878353	     -1.57081857	     -1.78062216	      0.00000000	      0.00000000	     -9.18572899	     -0.05940483	     -7.74439148	    -34.59702728	    -47.14343736	    -80.61346542	    111.86060755	     89.99559364	      0.00000000	      0.00000000	    -15.13647274	    -53.99078546	    -18.27717919	     53.73029677	     89.99559364	      0.00000000	      0.00000000
